<mxfile host="app.diagrams.net" modified="2023-05-04T16:52:37.873Z" agent="Mozilla/5.0 (Macintosh; Intel Mac OS X 10_15_7) AppleWebKit/537.36 (KHTML, like Gecko) Chrome/112.0.0.0 Safari/537.36" version="21.2.3" etag="wsGy7g9TRbzooLWciEEI" type="github">
  <diagram name="Page-1" id="QJ0kATss5q_VYwboU97r">
    <mxGraphModel>
      <root>
        <mxCell id="0" />
        <mxCell id="1" parent="0" />
      </root>
    </mxGraphModel>
  </diagram>
</mxfile>
